<?xml version="1.0" standalone="no"?>
<!DOCTYPE svg PUBLIC "-//W3C//DTD SVG 20010904//EN"
 "http://www.w3.org/TR/2001/REC-SVG-20010904/DTD/svg10.dtd">
<svg version="1.0" xmlns="http://www.w3.org/2000/svg"
 width="914.000000pt" height="914.000000pt" viewBox="0 0 914.000000 914.000000"
 preserveAspectRatio="xMidYMid meet">
<metadata>
Created by potrace 1.11, written by Peter Selinger 2001-2013
</metadata>
<g transform="translate(0.000000,914.000000) scale(0.100000,-0.100000)"
fill="#000000" stroke="none">
<path d="M8700 9116 c-30 -13 -91 -40 -135 -61 -44 -20 -105 -48 -135 -62 -30
-14 -82 -38 -115 -53 -205 -96 -261 -122 -270 -123 -5 -1 -12 -4 -15 -7 -3 -3
-43 -23 -90 -44 -47 -22 -114 -53 -150 -69 -36 -17 -67 -31 -70 -32 -6 -1
-136 -62 -162 -76 -10 -5 -25 -9 -33 -9 -8 0 -15 -4 -15 -10 0 -5 -4 -10 -9
-10 -5 0 -47 -17 -93 -39 -45 -21 -108 -50 -138 -64 -91 -41 -186 -85 -257
-119 -38 -17 -70 -32 -73 -33 -13 -4 -64 -27 -165 -75 -60 -29 -128 -60 -150
-70 -22 -10 -76 -35 -120 -56 -44 -21 -82 -38 -85 -39 -6 -2 -71 -31 -180 -82
-47 -22 -119 -55 -160 -74 -41 -18 -78 -37 -81 -42 -3 -5 -8 -8 -10 -7 -6 2
-56 -18 -138 -56 -42 -20 -98 -46 -126 -59 -27 -13 -90 -42 -140 -65 -49 -23
-151 -69 -225 -103 -74 -34 -138 -66 -142 -72 -4 -5 -8 -6 -8 -1 0 6 -5 5 -12
-2 -7 -7 -19 -12 -27 -12 -8 0 -22 -6 -30 -13 -9 -8 -34 -21 -56 -30 -22 -8
-84 -36 -138 -61 -54 -25 -99 -46 -101 -46 -2 0 -59 -26 -127 -58 -68 -32
-167 -78 -219 -101 -52 -23 -102 -46 -110 -52 -8 -5 -22 -12 -30 -16 -8 -3
-48 -21 -88 -40 -40 -18 -77 -33 -82 -33 -6 0 -10 -5 -10 -12 0 -6 -3 -9 -6
-6 -3 3 -51 -15 -107 -42 -56 -26 -124 -57 -152 -70 -27 -12 -97 -44 -153 -71
-57 -27 -105 -49 -108 -49 -2 0 -36 -16 -75 -35 -40 -19 -78 -35 -86 -35 -7 0
-13 -3 -13 -7 0 -5 -21 -17 -48 -27 -26 -11 -96 -43 -157 -71 -60 -29 -153
-71 -205 -95 -52 -23 -99 -47 -105 -51 -5 -5 -17 -9 -27 -9 -10 0 -18 -4 -18
-10 0 -5 -6 -10 -14 -10 -8 0 -46 -16 -85 -35 -39 -19 -72 -35 -75 -35 -2 0
-53 -23 -113 -50 -59 -28 -128 -60 -153 -72 -25 -11 -52 -24 -60 -29 -8 -5
-22 -12 -30 -15 -8 -3 -31 -13 -50 -22 -19 -8 -37 -16 -40 -17 -3 0 -34 -15
-70 -32 -166 -79 -284 -133 -300 -138 -3 -1 -36 -16 -75 -34 -38 -18 -97 -46
-130 -61 -33 -15 -96 -45 -140 -66 -44 -20 -82 -38 -85 -39 -3 0 -45 -20 -93
-43 -49 -23 -90 -42 -92 -42 -2 0 -48 -21 -102 -46 -54 -25 -125 -58 -158 -74
-33 -15 -96 -45 -140 -65 -44 -21 -86 -39 -94 -41 -7 -1 -18 -7 -24 -13 -6 -6
-19 -11 -29 -11 -10 0 -18 -4 -18 -10 0 -5 -5 -10 -12 -10 -6 0 -30 -9 -52
-19 -60 -29 -221 -102 -221 -101 0 0 -52 -25 -115 -57 -99 -50 -118 -64 -137
-98 -25 -45 -29 -100 -11 -142 14 -32 66 -83 252 -248 44 -38 91 -81 106 -95
14 -14 59 -54 100 -90 40 -36 82 -74 94 -85 12 -11 59 -54 106 -95 47 -41 94
-84 106 -95 11 -11 54 -49 94 -85 41 -36 88 -78 105 -95 18 -16 56 -51 86 -77
30 -25 70 -61 91 -80 20 -18 66 -60 103 -93 37 -33 81 -73 99 -90 18 -16 63
-57 100 -90 38 -33 83 -73 101 -90 17 -16 65 -59 105 -95 40 -36 85 -76 100
-90 15 -14 61 -54 101 -90 40 -36 84 -75 97 -87 62 -57 199 -181 230 -208 18
-16 46 -41 61 -55 15 -14 56 -50 90 -80 35 -30 80 -71 100 -90 21 -19 73 -66
116 -105 43 -38 89 -80 102 -92 14 -12 56 -50 95 -85 39 -35 83 -74 98 -88 85
-77 168 -151 186 -167 21 -18 162 -146 214 -193 15 -14 60 -54 100 -90 40 -36
85 -76 100 -90 38 -35 104 -94 190 -170 40 -36 92 -83 116 -105 23 -22 68 -62
100 -90 31 -27 69 -61 84 -75 16 -14 58 -52 95 -85 37 -33 84 -76 105 -95 21
-19 68 -62 106 -95 37 -33 77 -69 88 -80 12 -11 57 -51 101 -90 44 -38 89 -79
101 -90 11 -11 51 -47 89 -80 37 -33 82 -74 99 -90 17 -17 49 -45 71 -64 22
-19 82 -73 134 -120 52 -47 99 -90 105 -96 6 -5 49 -44 96 -85 47 -41 105 -94
130 -116 68 -63 95 -87 172 -156 39 -35 78 -70 87 -79 33 -32 92 -52 138 -45
44 6 106 44 122 75 8 14 218 636 225 666 2 6 6 17 9 25 3 8 20 58 37 110 17
52 34 102 37 110 3 8 7 20 9 25 1 6 63 190 137 410 74 220 156 463 181 540 26
77 50 147 53 155 3 8 7 20 8 25 2 6 15 44 30 85 14 41 28 82 30 90 2 8 20 62
40 120 20 58 38 112 40 120 2 8 31 96 65 195 34 99 63 187 65 195 3 8 25 76
51 150 25 74 47 142 49 150 3 8 30 92 63 185 32 94 59 173 60 177 2 4 5 13 7
20 31 91 137 407 140 418 2 8 34 103 70 210 36 107 68 202 70 210 2 8 16 49
30 90 28 79 34 97 35 105 0 3 8 24 16 47 9 24 17 48 18 53 2 6 6 18 9 28 4 9
10 25 14 35 3 9 7 22 8 27 3 13 84 253 92 275 4 8 7 17 8 20 11 44 180 539
188 548 5 6 7 12 4 12 -3 0 47 156 112 348 65 191 118 349 119 352 0 3 3 12 6
20 33 94 80 232 88 260 5 19 37 114 70 210 33 96 61 180 63 185 1 6 5 17 8 25
5 13 68 205 72 220 1 3 4 12 8 20 3 8 22 65 42 125 20 61 39 117 42 125 3 8 7
18 8 23 2 4 3 8 5 10 1 1 3 9 5 17 2 8 40 123 85 255 45 132 83 247 85 255 4
18 223 669 232 690 7 18 6 14 22 68 27 94 -8 174 -91 206 -52 21 -83 20 -148
-8z m-1506 -1091 c-66 -47 -129 -93 -140 -102 -12 -10 -32 -25 -44 -33 -12 -8
-52 -36 -89 -63 -36 -26 -77 -55 -90 -65 -14 -9 -48 -35 -78 -57 -29 -22 -85
-62 -124 -90 -39 -27 -76 -55 -83 -61 -6 -6 -30 -22 -52 -37 -22 -14 -47 -32
-55 -40 -8 -7 -32 -26 -54 -40 -40 -26 -361 -258 -380 -274 -5 -5 -46 -35 -90
-66 -86 -61 -285 -204 -325 -234 -13 -10 -78 -57 -145 -105 -66 -48 -124 -91
-130 -96 -5 -4 -31 -22 -57 -40 -25 -18 -53 -38 -60 -44 -8 -7 -21 -17 -30
-23 -33 -20 -240 -171 -271 -197 -18 -15 -37 -28 -44 -28 -6 0 -13 -3 -15 -8
-2 -6 -182 -139 -258 -192 -12 -8 -53 -37 -90 -65 -37 -27 -78 -57 -90 -65
-12 -8 -29 -21 -38 -28 -146 -109 -192 -142 -192 -137 0 3 -8 -3 -18 -12 -35
-33 -62 -53 -62 -45 0 4 -5 -1 -11 -10 -5 -10 -16 -18 -24 -18 -7 0 -15 -3
-17 -8 -3 -7 -97 -78 -149 -112 -12 -8 -31 -23 -41 -32 -10 -10 -21 -19 -25
-20 -5 -1 -37 -23 -73 -49 -159 -116 -538 -390 -568 -411 -18 -13 -40 -29 -48
-36 -8 -8 -38 -30 -67 -50 -28 -19 -80 -56 -114 -81 -34 -25 -71 -53 -83 -61
-51 -36 -377 -273 -400 -290 -14 -11 -56 -42 -95 -69 -38 -28 -74 -54 -80 -58
-5 -5 -50 -37 -100 -72 -49 -36 -162 -117 -250 -181 -230 -168 -211 -158 -242
-129 -76 70 -96 88 -149 136 -79 71 -115 103 -204 183 -41 38 -84 77 -96 87
-11 10 -58 52 -104 93 -98 89 -127 115 -172 155 -111 98 -198 177 -252 227
-33 32 -65 58 -70 58 -5 0 -3 7 4 15 7 8 16 15 20 15 5 0 41 15 82 34 40 18
98 45 128 59 220 100 339 156 393 183 27 13 55 24 63 24 8 0 14 5 14 10 0 6 6
10 13 10 7 0 38 12 68 26 30 15 83 40 119 56 36 17 89 41 117 54 29 14 55 25
58 25 2 0 30 13 61 29 31 17 62 30 70 30 8 0 14 5 14 10 0 6 5 10 11 10 5 0
36 12 67 26 31 15 75 34 97 44 22 10 83 38 135 63 52 24 118 54 145 67 28 12
77 35 110 50 33 16 85 40 115 53 30 14 87 40 125 58 39 18 72 34 75 34 3 1 37
16 75 35 39 19 72 34 75 35 3 1 30 13 60 27 30 14 114 53 185 86 72 33 171 79
220 102 50 23 110 51 135 62 77 35 430 198 529 244 51 24 95 44 96 44 3 0 175
80 270 125 68 32 305 141 425 196 41 18 77 37 78 41 2 5 10 8 19 8 8 0 52 17
96 39 166 78 202 95 207 96 3 1 39 17 80 37 41 19 100 47 130 61 30 13 84 38
120 55 36 16 124 57 195 90 72 33 171 79 220 102 50 23 110 51 135 62 25 11
73 33 108 49 34 16 92 43 130 60 37 17 96 45 132 61 95 44 176 82 255 118 39
18 95 44 125 58 30 14 57 26 60 27 3 1 36 16 73 33 38 18 73 32 78 32 5 0 9 5
9 12 0 6 3 9 6 6 3 -4 31 6 62 21 107 52 147 70 156 71 5 0 -45 -38 -110 -85z
m409 -123 c-10 -10 -45 -49 -78 -86 -33 -37 -69 -78 -80 -90 -11 -12 -51 -57
-90 -100 -38 -43 -79 -88 -90 -100 -11 -12 -54 -60 -95 -106 -41 -46 -86 -96
-100 -111 -14 -15 -45 -51 -70 -79 -25 -28 -58 -66 -75 -84 -16 -18 -59 -65
-95 -105 -36 -41 -76 -86 -90 -101 -46 -51 -139 -155 -157 -176 -10 -12 -40
-46 -68 -76 -27 -30 -79 -87 -115 -127 -36 -41 -77 -86 -91 -102 -14 -15 -52
-58 -85 -95 -32 -37 -75 -84 -94 -104 -19 -21 -48 -53 -65 -71 -140 -159 -183
-207 -202 -227 -13 -12 -23 -27 -23 -32 0 -6 -7 -10 -15 -10 -8 0 -15 -4 -15
-8 0 -5 -14 -24 -31 -43 -17 -19 -56 -63 -87 -98 -31 -36 -78 -88 -103 -115
-26 -28 -60 -66 -75 -84 -16 -18 -45 -50 -64 -71 -19 -21 -64 -71 -100 -111
-36 -40 -77 -87 -92 -104 -16 -17 -28 -34 -28 -39 0 -4 -4 -5 -10 -2 -5 3 -10
2 -10 -3 0 -6 -12 -23 -27 -40 -16 -16 -59 -65 -98 -108 -38 -43 -83 -93 -100
-111 -16 -18 -48 -53 -70 -78 -22 -26 -53 -61 -70 -79 -16 -18 -61 -68 -100
-111 -76 -85 -144 -160 -188 -209 -16 -17 -38 -42 -50 -56 -44 -49 -282 -315
-292 -326 -5 -6 -37 -41 -70 -79 -33 -37 -73 -82 -90 -99 -16 -18 -57 -63 -90
-101 -33 -37 -76 -84 -95 -105 -19 -21 -62 -68 -95 -105 -114 -130 -130 -148
-155 -175 -14 -15 -53 -58 -86 -96 -34 -38 -73 -81 -85 -95 -13 -14 -55 -61
-94 -104 -38 -44 -81 -91 -95 -106 -14 -15 -54 -60 -90 -100 -96 -107 -88
-101 -114 -84 -12 8 -31 25 -43 37 -11 13 -37 38 -59 57 -21 18 -62 54 -90 80
-123 112 -218 197 -236 212 -29 26 -158 141 -188 169 -15 14 -60 54 -100 90
-40 36 -85 76 -100 90 -15 14 -60 54 -100 90 -164 146 -155 136 -139 151 7 8
39 32 69 54 30 22 57 42 60 45 3 3 12 10 22 15 14 8 283 204 313 227 6 5 55
40 110 80 55 39 102 74 105 77 3 3 12 11 22 16 16 10 137 97 233 167 47 35 91
67 167 120 18 13 35 25 38 28 3 3 46 35 95 70 50 35 102 73 116 84 14 12 36
28 48 36 25 17 143 101 181 130 14 10 57 41 95 69 39 27 75 54 80 58 6 5 156
114 335 243 179 129 327 238 328 242 2 4 9 8 14 8 6 0 18 7 27 15 13 13 93 71
246 180 11 7 52 38 92 67 39 29 81 60 93 68 39 27 235 169 245 177 6 5 32 24
60 43 27 19 56 40 65 47 8 7 85 63 171 125 86 62 167 121 180 130 13 10 58 42
99 72 41 30 80 60 87 65 7 6 16 11 22 11 5 0 11 4 13 8 2 4 25 23 53 42 27 19
56 41 65 47 8 7 121 89 250 182 129 93 240 174 245 178 6 5 57 42 115 83 58
41 112 80 120 87 14 11 340 248 390 283 34 23 124 89 135 98 6 4 69 50 140
101 72 52 159 116 195 142 65 50 94 64 63 31z m246 -234 c-7 -13 -27 -47 -45
-76 -19 -29 -34 -56 -34 -61 0 -5 -6 -16 -12 -23 -13 -14 -21 -27 -66 -107
-14 -25 -33 -59 -43 -76 -10 -16 -28 -49 -40 -72 -13 -24 -26 -43 -31 -43 -4
0 -8 -5 -8 -12 0 -6 -25 -54 -57 -107 -31 -53 -65 -112 -75 -131 -11 -19 -25
-44 -31 -55 -7 -11 -34 -58 -61 -105 -27 -47 -55 -93 -64 -102 -8 -10 -12 -18
-8 -18 4 0 -1 -12 -11 -28 -25 -38 -63 -102 -123 -207 -10 -16 -79 -136 -155
-265 -76 -129 -151 -260 -168 -290 -17 -30 -34 -56 -39 -58 -4 -2 -8 -8 -8
-14 0 -6 -20 -44 -45 -85 -25 -40 -45 -78 -45 -83 0 -6 -5 -10 -11 -10 -5 0
-8 -4 -5 -9 4 -5 2 -11 -2 -13 -7 -3 -68 -104 -310 -518 -141 -243 -376 -638
-393 -662 -10 -15 -19 -30 -19 -32 0 -3 -19 -36 -42 -73 -23 -38 -46 -77 -52
-88 -23 -42 -101 -170 -106 -175 -3 -3 -10 -14 -16 -25 -14 -28 -393 -660
-464 -775 -33 -52 -59 -101 -59 -107 -1 -7 -5 -13 -9 -13 -5 0 -16 -15 -25
-32 -9 -18 -35 -62 -57 -97 -22 -34 -40 -64 -40 -66 0 -3 -152 -252 -180 -295
-5 -8 -19 -31 -30 -50 -11 -19 -44 -73 -73 -120 -29 -47 -97 -159 -152 -250
-55 -91 -103 -166 -107 -168 -4 -2 -8 -8 -8 -14 0 -6 -16 -37 -36 -69 -47 -77
-88 -152 -116 -211 -13 -27 -26 -48 -29 -48 -7 0 -175 147 -235 205 -18 16
-54 49 -80 71 -27 23 -68 59 -91 81 -23 22 -75 69 -115 104 -39 35 -84 75 -98
89 -14 14 -55 50 -91 82 -35 31 -80 70 -99 88 -43 39 -166 149 -191 170 -16
15 -16 18 13 50 27 31 149 168 188 210 8 9 49 54 90 101 75 84 123 137 170
189 14 15 39 43 55 61 161 181 282 317 294 330 9 9 41 44 71 79 30 34 71 79
90 100 19 21 60 65 90 100 30 34 69 77 85 95 17 17 59 65 95 105 36 41 72 81
80 90 8 9 49 54 90 100 73 83 119 134 170 190 28 32 145 161 175 194 11 12 49
56 85 96 36 41 86 97 111 124 92 101 102 112 149 166 26 30 61 69 77 85 15 17
60 66 98 109 39 44 84 94 100 112 17 18 55 61 85 95 30 34 66 74 80 89 37 40
152 170 173 194 10 12 37 41 60 66 48 52 183 202 210 234 20 23 120 135 152
170 11 12 54 60 95 106 41 46 84 93 95 106 11 12 33 37 50 55 27 31 151 169
232 259 17 19 42 47 55 61 13 15 57 64 98 109 41 46 83 93 93 104 33 39 141
160 202 226 66 72 176 195 224 250 17 19 31 39 31 43 0 5 5 5 10 2 6 -3 10 -2
10 3 0 6 12 23 28 40 15 16 56 61 92 101 35 39 66 71 67 71 2 0 -2 -10 -8 -22z
m230 -290 c-25 -68 -30 -82 -31 -88 -1 -13 -60 -177 -69 -193 -5 -10 -7 -22
-4 -27 4 -6 2 -10 -2 -10 -5 0 -9 -8 -10 -17 -1 -10 -7 -31 -14 -48 -7 -16
-13 -32 -14 -35 -10 -33 -27 -96 -27 -100 0 -3 -3 -9 -8 -15 -4 -5 -40 -109
-79 -230 -40 -121 -76 -229 -81 -240 -5 -11 -58 -171 -120 -355 -61 -184 -114
-342 -117 -350 -3 -8 -7 -19 -8 -25 -2 -5 -13 -39 -25 -75 -12 -36 -23 -69
-25 -75 -1 -5 -6 -21 -12 -35 -5 -14 -52 -153 -104 -310 -52 -157 -98 -288
-104 -292 -5 -4 -7 -8 -3 -8 4 0 -27 -100 -69 -222 -41 -123 -76 -227 -77
-233 -2 -5 -6 -17 -9 -25 -8 -18 -39 -111 -42 -125 -1 -5 -5 -17 -8 -25 -3 -8
-11 -33 -18 -55 -6 -22 -16 -45 -21 -51 -5 -7 -8 -16 -7 -20 1 -5 0 -16 -4
-24 -3 -8 -20 -58 -37 -110 -18 -52 -34 -102 -38 -110 -3 -8 -6 -17 -7 -20 -6
-24 -18 -59 -25 -75 -8 -19 -62 -180 -66 -200 -4 -14 -213 -637 -221 -655 -3
-8 -7 -19 -8 -25 -2 -5 -14 -43 -28 -82 -14 -40 -24 -73 -21 -73 2 0 -3 -11
-12 -25 -9 -14 -13 -25 -10 -25 4 0 4 -6 -1 -12 -4 -7 -8 -17 -9 -23 -2 -5
-64 -192 -139 -415 -75 -223 -138 -412 -140 -420 -4 -17 -63 -187 -72 -210 -8
-18 -6 -14 -22 -70 -7 -25 -18 -51 -23 -57 -6 -7 -8 -13 -5 -13 3 0 -11 -44
-29 -97 -19 -54 -36 -102 -38 -108 -4 -14 -11 -33 -30 -90 -10 -27 -19 -58
-21 -67 -2 -9 -8 -25 -13 -35 -6 -10 -10 -22 -11 -28 -1 -13 -40 -134 -51
-160 -11 -25 -104 -308 -105 -317 0 -3 -3 -10 -7 -14 -5 -4 -8 -15 -8 -24 0
-9 -6 -25 -14 -35 -13 -18 -15 -17 -42 11 -17 16 -60 56 -97 88 -38 32 -80 71
-95 85 -15 14 -60 55 -101 91 -40 36 -85 76 -101 90 -15 14 -60 54 -100 90
-40 36 -85 76 -100 90 -15 14 -49 45 -76 69 -27 24 -85 75 -128 115 -44 39
-89 80 -102 91 -12 11 -59 54 -104 95 -46 41 -89 79 -96 83 -16 9 -18 30 -5
55 6 9 29 55 51 102 23 47 47 92 54 100 7 8 21 33 31 55 11 22 23 42 26 45 3
3 17 25 31 50 27 48 238 399 280 465 45 71 55 90 56 99 0 5 4 12 9 15 5 3 22
28 38 56 16 27 32 54 37 60 15 17 117 189 130 218 7 15 16 27 20 27 4 0 8 4 8
9 0 6 37 70 83 143 45 73 117 192 160 263 43 72 83 139 90 150 24 38 58 97 76
128 15 25 147 246 190 317 68 111 200 333 214 360 11 19 25 42 33 51 8 8 14
18 14 21 0 3 40 73 89 155 107 180 516 874 544 923 10 19 24 38 31 42 6 4 8 8
3 8 -4 0 3 17 16 38 27 42 330 559 359 612 11 19 28 49 39 65 10 17 22 37 26
45 24 48 149 256 155 258 4 2 8 8 8 13 0 6 22 47 48 92 27 45 51 89 55 97 4 8
16 29 27 45 36 55 41 65 33 65 -4 0 -3 4 3 8 10 7 114 179 114 189 0 3 8 17
19 31 10 15 29 47 43 72 14 25 48 85 77 133 28 49 51 93 51 98 0 5 5 9 10 9 6
0 10 5 10 10 0 6 18 40 40 76 22 36 40 70 40 75 0 5 4 9 9 9 5 0 0 -24 -10
-52z"/>
</g>
</svg>
