<?xml version="1.0" encoding="UTF-8" standalone="no"?>
<svg
   xmlns:dc="http://purl.org/dc/elements/1.1/"
   xmlns:cc="http://creativecommons.org/ns#"
   xmlns:rdf="http://www.w3.org/1999/02/22-rdf-syntax-ns#"
   xmlns:svg="http://www.w3.org/2000/svg"
   xmlns="http://www.w3.org/2000/svg"
   xmlns:sodipodi="http://sodipodi.sourceforge.net/DTD/sodipodi-0.dtd"
   xmlns:inkscape="http://www.inkscape.org/namespaces/inkscape"
   sodipodi:docname="triangle.svg"
   inkscape:version="1.0 (6e3e5246a0, 2020-05-07)"
   id="svg8"
   version="1.1"
   viewBox="0 0 115.96597 120.92889"
   height="120.92889mm"
   width="115.96597mm">
  <defs
     id="defs2">
    <rect
       id="rect927"
       height="62.941269"
       width="41.205181"
       y="178.10509"
       x="86.58474" />
    <rect
       id="rect917"
       height="58.533676"
       width="36.051201"
       y="179.84634"
       x="84.797211" />
    <rect
       id="rect911"
       height="88.908707"
       width="30.932116"
       y="176.09735"
       x="84.123993" />
  </defs>
  <sodipodi:namedview
     inkscape:window-maximized="1"
     inkscape:window-y="27"
     inkscape:window-x="67"
     inkscape:window-height="1025"
     inkscape:window-width="1853"
     showguides="false"
     inkscape:object-nodes="true"
     showgrid="false"
     inkscape:document-rotation="0"
     inkscape:current-layer="layer1"
     inkscape:document-units="mm"
     inkscape:cy="224.70929"
     inkscape:cx="573.72696"
     inkscape:zoom="0.70710678"
     inkscape:pageshadow="2"
     inkscape:pageopacity="0.0"
     borderopacity="1.0"
     bordercolor="#666666"
     pagecolor="#ffffff"
     id="base" />
  <metadata
     id="metadata5">
    <rdf:RDF>
      <cc:Work
         rdf:about="">
        <dc:format>image/svg+xml</dc:format>
        <dc:type
           rdf:resource="http://purl.org/dc/dcmitype/StillImage" />
        <dc:title></dc:title>
      </cc:Work>
    </rdf:RDF>
  </metadata>
  <g
     transform="translate(-3.8926283,-76.321568)"
     id="layer1"
     inkscape:groupmode="layer"
     inkscape:label="Layer 1">
    <path
       d="m 117.72807,76.321824 a 2.1655155,2.1655155 0 0 1 2.01757,2.855493 L 80.574041,195.77529 a 2.1655155,2.1655155 0 0 1 -3.49944,0.92083 l -18.1152,-16.28038 -18.1169,-16.28032 -18.11521,-16.27978 -18.1152,-16.27809 a 2.1655155,2.1655155 0 0 1 0.53907,-3.57838 L 116.78528,76.519752 a 2.1655155,2.1655155 0 0 1 0.87626,-0.197928 2.1655155,2.1655155 0 0 1 0.0666,0 z m -19.243499,13.407378 -88.53196,40.824908 14.3671,12.91172 z m 4.036819,2.424676 -74.907519,54.272322 14.51202,13.04029 z m 3.09964,3.030857 -60.273689,67.176705 13.47899,12.11327 c 0.0208,-0.0457 0.0392,-0.0909 0.0609,-0.13702 0.96048,-2.03287 2.77725,-4.97711 6.42541,-10.9545 6.37437,-10.44424 18.30364,-29.99175 40.308389,-68.198455 z m 3.02859,3.417677 C 87.096071,135.99835 75.310611,155.31201 69.008311,165.63816 c -3.64815,5.9774 -5.47805,9.01046 -6.20607,10.55132 -0.49541,1.04853 -0.57048,1.11973 -0.48493,1.42267 l 15.20051,13.66226 z"
       style="color:#000000;font-style:normal;font-variant:normal;font-weight:normal;font-stretch:normal;font-size:medium;line-height:normal;font-family:sans-serif;font-variant-ligatures:normal;font-variant-position:normal;font-variant-caps:normal;font-variant-numeric:normal;font-variant-alternates:normal;font-variant-east-asian:normal;font-feature-settings:normal;font-variation-settings:normal;text-indent:0;text-align:start;text-decoration:none;text-decoration-line:none;text-decoration-style:solid;text-decoration-color:#000000;letter-spacing:normal;word-spacing:normal;text-transform:none;writing-mode:lr-tb;direction:ltr;text-orientation:mixed;dominant-baseline:auto;baseline-shift:baseline;text-anchor:start;white-space:normal;shape-padding:0;shape-margin:0;inline-size:0;clip-rule:nonzero;display:inline;overflow:visible;visibility:visible;opacity:1;isolation:auto;mix-blend-mode:normal;color-interpolation:sRGB;color-interpolation-filters:linearRGB;solid-color:#000000;solid-opacity:1;vector-effect:none;fill:#000000;fill-opacity:1;fill-rule:nonzero;stroke:none;stroke-width:4.3306;stroke-linecap:round;stroke-linejoin:round;stroke-miterlimit:4;stroke-dasharray:none;stroke-dashoffset:0;stroke-opacity:1;color-rendering:auto;image-rendering:auto;shape-rendering:auto;text-rendering:auto;enable-background:accumulate;stop-color:#000000;stop-opacity:1"
       id="path934" />
  </g>
</svg>
